<svg width="19" height="19" viewBox="0 0 19 19" fill="none" xmlns="http://www.w3.org/2000/svg">
<path d="M19 17L13.846 11.846C14.7988 10.3979 15.1804 8.64774 14.917 6.93442C14.6535 5.22111 13.7637 3.66648 12.4199 2.57154C11.076 1.47659 9.37368 0.919227 7.64246 1.00735C5.91125 1.09547 4.2743 1.82281 3.04857 3.04855C1.82283 4.27429 1.09549 5.91123 1.00736 7.64245C0.919242 9.37366 1.47661 11.076 2.57155 12.4199C3.66649 13.7637 5.22112 14.6535 6.93444 14.917C8.64776 15.1804 10.3979 14.7988 11.846 13.846L17 19L19 17ZM2.99999 7.99998C2.99999 5.24298 5.24299 2.99998 7.99999 2.99998C10.757 2.99998 13 5.24298 13 7.99998C13 10.757 10.757 13 7.99999 13C5.24299 13 2.99999 10.757 2.99999 7.99998Z" fill="white"/>
</svg>
